<?xml version="1.0" encoding="utf-8"?><!DOCTYPE svg PUBLIC "-//W3C//DTD SVG 1.1//EN" "http://www.w3.org/Graphics/SVG/1.1/DTD/svg11.dtd"><svg width="3000" height="2000" viewBox="0 0 3000 2000" xmlns="http://www.w3.org/2000/svg" xmlns:xlink="http://www.w3.org/1999/xlink"><svg viewBox="0 0 1000 1000" width="1000" height="1000" id="delivery" xmlns="http://www.w3.org/2000/svg"><path d="M23.24 164.68c-13.96 5.63-13.23-6.86-13.23 243.77v230.79l6.37 5.88c5.88 5.63 8.08 5.88 47.77 7.1l41.41 1.23-6.62 9.8c-3.67 5.39-9.31 16.91-12.25 25.73L81.3 704.9l-30.63.73c-29.64.74-30.87.74-35.77 7.11-6.62 8.33-6.12 16.17.98 24.5 5.88 6.86 6.37 6.86 36.51 7.59l30.63.98 1.47 8.08c4.9 26.22 32.59 59.05 60.76 72.27 61 28.17 133.03-2.2 153.86-64.92l5.39-15.92H685.71l4.17 12.74c17.39 53.41 69.58 86.24 123.72 77.67 43.12-6.62 85.01-44.1 92.12-82.08l1.47-8.33h21.32c25.23 0 36.75-2.94 47.04-11.52C990 721.56 990 722.29 990 592.45c0-110.25-.24-118.82-4.41-123.97-2.7-3.43-21.32-11.76-50.71-23.27l-46.55-17.64-39.69-74.48c-21.8-40.91-41.89-76.19-44.83-78.65-4.9-3.92-12.01-4.41-73.74-4.41h-68.11l-.73-47.77c-.74-45.81-.98-47.77-6.37-53.17l-5.63-5.63-310.41-.49c-172.5-.25-312.89.48-315.58 1.71zm596.08 38.71c1.71 1.23 1.96 66.89 1.23 204.33l-1.23 202.86H49.21V407.72c0-111.72.73-203.59 1.47-204.33 1.96-2.21 565.45-1.96 568.64 0zm200.9 179.83l39.44 74.23 21.56 8.82c12.01 4.9 32.59 12.98 45.82 18.13l23.77 9.07v117.1H661.7V309.23h119.31l39.21 73.99zm-595.1 276.6c26.71 13.23 40.18 35.77 39.93 66.88-.49 39.93-31.36 70.8-71.05 70.8-39.93 0-70.31-27.93-73.25-66.88-1.47-22.54 3.92-37.97 19.35-55.13 22.3-24.25 55.62-30.37 85.02-15.67zm476.76 6.37c-4.66 7.84-10.29 20.09-12.25 26.95l-3.67 12.98H304.98l-4.16-12.98c-2.21-7.11-7.84-19.11-12.5-26.95l-8.58-13.97H710.45l-8.57 13.97zm127.65-7.35c12.49 6.62 27.19 21.07 33.81 33.81 4.41 7.84 5.39 13.96 5.39 31.85 0 20.09-.73 23.27-7.59 35.52-28.91 51.45-103.14 49.73-129.36-3.18-5.14-9.8-6.37-16.17-6.37-29.89 0-9.8 1.23-21.32 2.94-25.97 6.86-20.33 23.77-37.49 45.33-45.33 13.22-4.9 43.35-3.18 55.85 3.19zm120.78 19.6l-.74 26.46h-40.91l-4.41-14.21c-2.45-7.59-6.13-16.91-8.33-20.09-2.2-3.43-5.63-8.82-7.84-12.25l-3.92-6.13h66.88l-.73 26.22z"/></svg><svg viewBox="0 0 1000 1000" width="1000" height="1000" id="garbadge" x="1000" xmlns="http://www.w3.org/2000/svg"><path d="M799.9 295.6H642V264c0-34.9-28.3-63.1-63.1-63.1H421.1c-34.9 0-63.1 28.3-63.1 63.1v31.6H200.1v31.6h32.5l31.6 599.7c0 34.9 28.3 63.1 63.1 63.1h347.2c34.9 0 63.1-28.3 63.1-63.1l31-599.7h31.1v-31.6h.2zM389.5 264c0-17.4 14.2-31.6 31.6-31.6h157.8c17.4 0 31.6 14.1 31.6 31.6v31.6h-221V264zm316.7 661.2l-.1.8v.8c0 17.4-14.1 31.6-31.6 31.6H327.4c-17.4 0-31.6-14.2-31.6-31.6v-1.6l-31.5-598h472.9l-31 598z"/><path d="M484.2 390.3h31.6v505h-31.6v-505zM421.8 894.3l-32.3-504-31.5 2 32.3 504 31.5-2zM642.3 391.3l-31.5-2-31.8 505 31.5 2 31.8-505z"/></svg><svg viewBox="0 0 1000 1000" width="1000" height="1000" id="gear" y="1000" xmlns="http://www.w3.org/2000/svg"><path d="M408.25 11.31c-2.58 1.08-5.6 3.23-6.46 4.74-1.08 1.51-2.37 28.43-3.02 59.66l-1.08 56.65-22.62 7.97c-12.49 4.52-31.88 12.49-43.08 17.66l-20.68 9.91-40.71-39.42c-34.46-33.17-42-39.41-47.38-39.63-5.6 0-14.65 8.18-70.65 64.18C97 208.6 88.6 217.86 88.6 223.46c0 5.38 6.46 12.92 39.42 47.38l39.63 40.71-9.69 20.68c-5.38 11.2-13.35 30.58-17.88 43.08l-7.97 22.62-57.29 1.08c-51.05.86-57.51 1.51-60.95 4.95-3.66 3.45-3.88 10.34-3.88 95.2s.22 91.75 3.88 95.2c3.45 3.45 9.91 4.09 60.95 4.95l57.29 1.08 6.89 20.46c7.75 22.18 16.15 42.65 23.91 58.37l5.17 9.91-39.85 39.63c-34.68 34.46-39.63 40.49-39.63 46.31 0 6.03 7.54 14.43 63.75 71.72 56.43 57.29 64.62 64.83 70.43 64.83 5.82 0 12.28-5.6 47.6-40.71l41.14-40.71 27.57 13.57c15.08 7.54 34.68 15.94 43.51 18.52l16.15 5.17v56.21c0 52.34.22 56.86 4.09 61.38l4.09 5.17h183.94l4.09-5.17c3.88-4.52 4.09-9.04 4.09-61.38v-56.21l19.6-6.25c10.77-3.45 30.8-11.85 44.59-18.74l25.2-12.49 39.42 40.92c35.11 35.97 40.28 40.71 46.31 40.71 6.25 0 14-7.11 72.15-65.26 57.94-57.94 65.05-65.91 65.05-71.94 0-6.03-4.74-11.42-40.71-46.09l-40.71-39.2 12.49-25.63c6.89-14.21 15.29-34.46 18.74-45.01l6.03-19.17h56.21c52.34 0 56.86-.21 61.38-4.09l5.17-4.09v-91.75c0-85.08-.21-91.97-3.88-95.42-3.45-3.45-9.91-4.09-60.95-4.95l-57.08-1.08-8.62-22.62c-4.52-12.49-13.14-31.88-18.96-43.29l-10.55-20.68 40.71-40.71c35.76-35.54 40.71-41.57 40.71-47.38 0-6.25-6.89-13.78-64.83-70.65-57.29-56.22-65.69-63.75-71.72-63.75-5.81 0-11.63 4.95-46.31 39.63l-39.38 39.42-23.69-10.77c-13.14-5.82-33.17-14-44.58-17.88l-20.68-6.89-1.08-57.29c-.86-51.05-1.51-57.51-4.95-60.95-3.45-3.66-10.55-3.88-92.62-4.31-48.89-.22-90.89.43-93.26 1.5zm160.67 83.57c0 39.42.65 54.49 2.8 57.08 1.29 1.94 12.28 6.46 24.12 9.91 23.69 7.11 46.31 16.15 73.66 30.15 9.91 4.74 20.46 8.83 23.69 8.83 4.95 0 13.14-7.11 43.72-37.69l37.91-37.69 50.19 48.68 50.18 48.89-38.99 38.98c-32.52 32.52-38.98 40.06-38.98 45.23 0 3.45 4.74 14.43 10.55 24.77 11.85 20.68 23.04 46.95 30.58 71.29 8.4 27.35 4.52 25.85 66.99 25.85h53.42v140h-53.42c-39.42 0-54.49.65-57.08 2.8-1.94 1.29-6.03 10.77-8.83 20.89-7.11 24.12-16.15 45.66-30.37 72.59-6.68 12.28-11.85 24.77-11.85 28.43 0 5.38 5.82 11.85 38.77 43.72l38.98 37.26-50.4 50.18-50.16 50.19-37.26-38.98c-43.29-45.23-40.92-44.15-67.42-28.86-22.4 12.71-47.17 23.26-73.88 31.23-11.85 3.45-22.83 7.97-24.12 9.91-2.15 2.58-2.8 17.66-2.8 57.08V959h-140v-53.42c0-50.62-.22-53.85-4.31-57.51-2.37-2.15-15.08-7.54-28.43-11.85-30.15-9.91-40.92-14.65-64.4-28.21-10.34-5.82-21.32-10.55-24.77-10.55-5.17 0-12.71 6.46-45.23 38.98l-38.98 39-48.68-50.18-48.89-50.18 37.69-37.91c30.15-30.37 37.69-39.2 37.69-43.72 0-3.23-4.95-15.51-10.77-27.35-13.57-26.92-21.75-47.82-28.86-72.37-3.23-10.55-7.32-20.46-9.26-21.97-2.58-1.94-17.66-2.58-57.08-2.58H41.23v-140h53.41c52.77 0 53.63 0 57.94-4.95 2.37-2.58 5.6-9.69 7.11-15.51 4.74-18.09 16.15-46.31 28.86-71.72 6.68-13.14 12.06-26.71 12.06-29.94-.22-4.74-7.97-14-37.69-44.8l-37.48-38.77 48.68-48.89 48.89-48.89 35.97 34.46c19.6 18.74 37.05 35.75 38.55 37.48 4.74 5.82 14.65 3.45 39.2-8.83 25.42-12.71 53.63-24.12 71.72-28.86 6.03-1.51 12.92-4.74 15.72-7.11 4.74-4.31 4.74-5.17 4.74-57.94V41.49h140v53.39z"/><path d="M473.94 248.24c-38.77 3.66-88.09 21.75-119.97 44.37-60.09 43.07-98.43 109.41-105.97 183.72-7.75 74.74 22.83 154.43 78.83 206.77 108.77 101.66 282.8 86.8 372.61-31.88 65.05-85.72 68.06-204.19 7.54-294-41.35-61.38-109.42-101.23-185.23-108.98-12.28-1.08-23.91-1.94-25.85-1.94-1.93.21-11.84 1.08-21.96 1.94zm70.21 34.24c84 17.23 148.83 80.55 170.37 166.06 6.25 24.77 5.6 80.55-1.08 105.54-21.11 79.05-81.42 139.14-160.25 159.6-21.75 5.81-64.62 7.75-87.66 4.31-78.4-12.06-143.02-63.54-172.52-137.2-19.81-49.75-20.03-112.22 0-163.48 21.54-55.57 70-103.6 126.22-125.14 36.62-13.78 86.15-17.66 124.92-9.69z"/></svg><svg viewBox="0 0 1000 1000" width="1000" height="1000" id="logout" x="1000" y="1000" xmlns="http://www.w3.org/2000/svg"><path d="M923.817 884.117c0 58.3-53.4 105.8-119.1 105.8h-603.1c-69.3 0-125.6-47.5-125.6-105.8v-497.8c0-58.4 56.4-105.8 125.6-105.8h64.5c17.2 0 31.3 14 31.3 31.2s-14 31.2-31.3 31.2h-64.5c-29.4 0-53.4 19.5-53.4 43.5v497.7c0 24 23.9 43.5 53.4 43.5h596.6c29.4 0 53.4-19.5 53.4-43.5v-497.8c0-24-23.9-43.5-53.4-43.5h-64.5c-17.2 0-31.2-14-31.2-31.2s14-31.2 31.2-31.2h64.5c69.3 0 125.6 47.5 125.6 105.8v497.9zm-198.4-671.5c0 8.4-3.5 16.3-9.8 22.2-12.8 11.9-33.6 11.9-46.4 0l-128.7-120c-.1-.1-.2-.2-.4-.1s-.2.2-.2.4v522c0 17.2-14.8 31.2-33 31.2s-33-14-33-31.2v-521.9c0-.1 0-.3-.2-.4-.2-.1-.3 0-.4.1l-128.7 120c-12.8 11.9-33.6 11.9-46.4 0-6.3-5.9-9.8-13.8-9.8-22.2 0-8.4 3.5-16.3 9.8-22.2l184.2-171.7c6.5-6 15.2-9.1 24.5-8.7 9.3-.4 18 2.7 24.5 8.7l184.2 171.6c6.3 5.9 9.8 13.8 9.8 22.2z"/></svg><svg viewBox="0 0 1000 1000" width="1000" height="1000" id="paint" x="2000" xmlns="http://www.w3.org/2000/svg"><path d="M891.32 13.16c-10.73 3.64-20.11 9.96-32.76 22.03-10.54 10.15-491.95 652.86-499.03 666.27-6.9 13.22-9.77 30.46-7.47 43.48l1.73 9.96-14.56-1.15c-8.24-.77-21.65-.38-30.84.96-36.78 4.98-58.24 17.43-90.8 52.68-36.01 38.89-48.28 50.19-62.07 56.9-12.07 5.94-13.99 6.32-32.95 6.13-17.05 0-22.22-.96-33.72-5.17-16.86-6.32-20.69-6.51-26.63-.38-8.05 7.85-6.32 15.32 9.19 38.12 30.84 45.78 92.34 77.77 163.41 85.63 24.52 2.68 58.24 1.34 74.52-3.06 49.81-12.84 89.46-55.75 109-117.62 4.21-13.41 8.43-31.8 11.69-52.11.96-6.71 1.53-7.09 9.58-7.86 11.69-1.34 27.97-9.77 37.74-19.35 7.85-7.86 439.46-670.49 453.06-695.77 27.38-51.15 5.73-95.21-39.09-79.69zm19.54 38.5c-.19 7.28-1.72 13.98-5.17 21.26-2.68 5.94-49.61 79.69-104.21 163.79-54.61 84.3-153.46 236.59-219.74 338.89-66.28 102.11-122.22 187.93-124.52 190.23-15.33 16.67-43.87 16.86-61.3.57-12.84-11.88-17.82-35.25-10.35-49.42 4.41-8.43 482.37-646.92 491.95-657.27 9.58-10.35 24.33-19.92 29.5-19.16 3.26.58 3.84 1.92 3.84 11.11zM354.73 786.33c15.71 2.3 20.31 3.83 28.35 9.39 5.36 3.64 11.49 7.28 13.6 7.85 4.22 1.34 4.22 1.34-1.53 30.46-10.73 56.13-37.36 97.12-74.52 114.56-19.16 9-36.21 11.69-65.9 10.34-37.74-1.53-70.69-9.58-99.62-24.14-13.98-6.9-33.14-20.12-39.85-27.39l-4.41-4.6 17.82-.96c37.55-2.11 60.92-17.24 104.79-67.43 38.52-44.25 68.21-56.13 121.27-48.08z"/></svg><svg viewBox="0 0 1000 1000" width="1000" height="1000" id="tools" x="2000" y="1000" xmlns="http://www.w3.org/2000/svg"><path d="M775.5 12.52c-45.58 8.62-88.09 36.77-114.52 75.64-31.02 45.58-40.02 104.37-23.75 155.12l4.6 14.36-71.24 71.05-71.05 71.24-7.85-.96c-7.47-.96-12.26-5.36-83.3-76.41l-75.64-75.26 8.81-9.38c5.17-5.55 9.96-12.83 11.3-17.62 2.11-7.09 2.11-9.19-.96-17.04-1.92-4.79-3.64-11.11-3.64-13.98 0-17.43 46.92-67.41 90.96-96.9 18-12.26 47.68-27.19 65.11-32.75 21.45-7.09 28.92-21.06 17.23-32.75-6.89-6.7-14.75-9-41.94-11.87-68.36-7.08-144.2 16.47-205.48 64.15-13.6 10.53-152.24 147.46-155.5 153.59-4.21 7.66-5.17 16.85-2.49 24.7l2.87 7.85-12.45 12.26c-11.49 11.68-12.45 12.26-17.23 10.15-14.36-6.51-25.85-1.15-51.51 24.13-27.19 26.81-31.98 36.96-24.9 53.62 3.06 7.66 71.81 78.13 82.73 85.03 7.66 4.79 22.22 5.17 30.26.96 3.06-1.53 15.51-13.21 27.77-25.66 26.04-26.24 29.49-33.32 24.32-47.68l-2.87-8.23 11.87-11.68 11.68-11.68 8.81 2.3c12.45 3.45 22.41 0 34.85-11.68l9.96-9.38 74.88 75.07 74.88 75.07 1.15 9.57 1.15 9.58-72.39 72.39-72.58 72.55-15.13-4.79c-59.37-18.77-123.14-5.17-172.74 36.77-24.51 20.49-47.88 58.02-55.92 89.24-8.04 30.45-6.7 69.71 3.06 99.96 5.55 17.23 19.53 26.43 34.66 22.79 3.45-.96 21.45-17.43 51.9-47.68l46.34-46.34 28.15 28.34 28.34 28.15-46.34 46.34c-30.26 30.45-46.73 48.45-47.68 51.9-3.64 15.13 5.55 29.11 22.79 34.66 42.13 13.6 90.39 10.72 130.22-8.04C349.4 934.6 390 840 361.85 752.87l-3.83-12.26 69.71-69.71 69.9-69.9L674.2 787.53c123.33 130.03 179.44 187.86 185.76 191.5 12.26 7.28 23.55 8.62 37.72 4.4 10.73-3.06 13.02-4.79 48.83-40.79 33.71-33.9 37.92-38.68 40.98-48.07 4.21-12.83 3.06-25.85-3.06-37.53-3.45-6.51-52.47-54-190.35-184.8C692 575.35 608.13 494.92 607.74 493.58c-.19-1.15 29.68-32.36 66.45-69.13l66.83-66.64 12.06 3.83c47.11 15.13 96.13 11.3 139.61-11.3 43.66-22.6 80.05-67.6 91.92-113.75 10.72-40.98 4.02-100.16-13.02-116.62-5.94-5.55-16.28-8.04-24.7-6.13-3.45.96-21.45 17.43-51.9 47.68l-46.34 46.34-28.15-28.35-28.34-28.15 46.34-46.34c30.26-30.45 46.73-48.45 47.68-51.9 3.07-12.64-4.4-27.58-16.47-32.36-23.35-9.58-67.21-13.41-94.21-8.24zm67.22 31.6l10.15 2.3-42.13 42.51c-42.9 43.09-48.26 49.98-48.26 62.81.19 12.06 6.7 21.07 37.53 51.51 33.32 32.75 38.11 35.62 54 33.32 8.62-1.15 10.73-3.06 53.43-45.58 24.51-24.32 45-43.85 45.39-43.28.57.57 2.49 9.19 4.21 18.96 11.11 63.96-20.68 126.2-79.86 157.03-21.83 11.3-40.22 15.7-66.83 15.89-23.55 0-38.49-2.87-59.56-11.3-6.13-2.49-12.64-4.6-14.56-4.6s-36.58 33.13-77.17 73.73c-40.6 40.6-74.69 73.73-75.64 73.73-1.15-.19-14.36-12.26-29.68-26.81l-27.77-26.62 74.11-74.3c40.6-40.79 74.49-76.22 75.07-78.52.76-2.49-.58-8.62-3.45-15.51-12.26-30.64-15.13-67.22-7.28-96.71 14.94-55.73 63-100.35 118.73-110.5 11.5-2.08 46.16-.93 59.57 1.94zm-386.65 2.11c-1.53.96-10.34 6.13-19.34 11.49C390 85.29 340.79 132.4 323.74 166.11c-5.55 10.72-6.51 14.94-6.51 25.66 0 9.96.77 13.79 3.64 16.85l3.83 4.21-53.24 53.24-53.43 53.43-6.32-2.68c-13.79-5.75-24.13-2.11-42.32 15.13-18.57 17.62-25.47 28.15-25.47 38.88 0 4.6.96 10.53 2.3 13.21 2.11 4.79 1.34 5.75-14.75 22.02-9.38 9.57-18 17.23-19.15 17.23-.96 0-17.62-15.7-36.77-34.85L40.51 353.4l18.39-18.39 18.38-18.38 7.85 2.87c14.17 4.98 22.22 1.15 43.66-20.49 15.89-15.7 18.77-19.73 20.3-27 1.72-7.85 1.15-13.21-2.11-21.07-.96-2.11 19.92-23.94 71.05-74.88 59.37-58.98 75.64-74.11 90.58-83.88C342.7 69.4 376.6 55.23 410.11 49.1c27-4.79 51.32-6.32 45.96-2.87zm-65.11 303.33l79.47 79.47h11.11c10.92 0 11.11.19 23.94 11.87 56.68 52.66 452.14 429.16 453.1 431.64 3.64 9.58 1.72 12.45-31.98 46.34-18 18.19-35.04 34.09-37.54 35.04-2.68 1.15-7.08 1.34-9.77.77-3.64-.77-67.6-67.03-223.29-231.14-119.88-126.37-219.27-232.08-220.61-234.57-1.53-2.68-2.11-7.47-1.72-10.92.58-3.26.58-7.47-.19-9.19-.77-1.72-36.96-39.07-80.62-82.92l-79.28-79.86 18-18c9.77-9.96 18.38-18 18.96-18 .56 0 36.76 35.81 80.42 79.47zm59.18 201.47l26.81 28.34-75.26 75.64c-41.56 41.56-76.03 77.56-76.6 79.67-.77 2.49.96 9.58 4.4 18.19 8.04 20.68 10.53 34.66 10.34 58.21-.19 24.32-4.6 43.47-14.17 62.43-20.49 40.6-51.71 67.41-93.65 80.43-11.49 3.64-18.77 4.41-37.34 4.6-12.83 0-28.34-1.15-35.04-2.68l-12.06-2.68 43.09-43.47c61.47-62.24 61.47-62.05 9.57-113.18-33.32-32.75-38.11-35.62-54-33.32-8.62 1.15-10.72 3.06-53.43 45.58-24.51 24.32-44.81 43.85-45.19 43.28-2.3-2.49-5.55-22.02-6.51-37.15-4.04-68.37 43.46-132.33 112.21-150.72 29.11-7.85 65.88-4.98 96.33 7.47 6.51 2.49 13.4 4.21 15.7 3.64 2.3-.58 38.11-35.05 79.66-76.79 41.56-41.56 76.22-75.64 76.98-75.64.58-.01 13.41 12.63 28.16 28.15z"/></svg></svg>