<?xml version="1.0" encoding="utf-8"?>
<!-- Svg Vector Icons : http://www.onlinewebfonts.com/icon -->
<!DOCTYPE svg PUBLIC "-//W3C//DTD SVG 1.1//EN" "http://www.w3.org/Graphics/SVG/1.1/DTD/svg11.dtd">
<svg version="1.1" xmlns="http://www.w3.org/2000/svg" xmlns:xlink="http://www.w3.org/1999/xlink" x="0px" y="0px" viewBox="0 0 1000 1000" enable-background="new 0 0 1000 1000" xml:space="preserve">
<metadata> Svg Vector Icons : http://www.onlinewebfonts.com/icon </metadata>
<g><g transform="translate(0.000000,511.000000) scale(0.100000,-0.100000)"><path d="M232.4,3463.2c-139.6-56.3-132.3,68.6-132.3-2437.7v-2307.9l63.7-58.8c58.8-56.3,80.8-58.8,477.7-71l414.1-12.3l-66.2-98c-36.7-53.9-93.1-169.1-122.5-257.3L813-1939l-306.3-7.3c-296.4-7.4-308.7-7.4-357.7-71.1c-66.2-83.3-61.2-161.7,9.8-245c58.8-68.6,63.7-68.6,365.1-75.9l306.3-9.8l14.7-80.8c49-262.2,325.9-590.5,607.6-722.7c610-281.7,1330.3,22,1538.6,649.2l53.9,159.2H4951h1906.1l41.7-127.4c173.9-534.1,695.8-862.4,1237.2-776.7c431.2,66.2,850.1,441,921.2,820.8l14.7,83.3h213.2c252.3,0,367.5,29.4,470.4,115.2C9900-2105.6,9900-2112.9,9900-814.5c0,1102.5-2.4,1188.2-44.1,1239.7c-27,34.3-213.2,117.6-507.1,232.7l-465.5,176.4l-396.9,744.8c-218,409.1-418.9,761.9-448.3,786.5c-49,39.2-120.1,44.1-737.4,44.1h-681.1l-7.3,477.7c-7.4,458.1-9.8,477.7-63.7,531.7l-56.3,56.3l-3104.1,4.9C1663.2,3482.8,259.3,3475.5,232.4,3463.2z M6193.2,3076.1c17.1-12.3,19.6-668.9,12.3-2043.3l-12.3-2028.6H3343.8H492.1v2028.6c0,1117.2,7.3,2035.9,14.7,2043.3C526.4,3098.2,6161.3,3095.7,6193.2,3076.1z M8202.2,1277.8l394.4-742.3l215.6-88.2c120.1-49,325.9-129.8,458.2-181.3l237.7-90.7v-585.5v-585.5H8062.5H6617V511v1506.7h595.3h597.8L8202.2,1277.8z M2251.2-1488.2c267.1-132.3,401.8-357.7,399.3-668.8c-4.9-399.3-313.6-708-710.5-708c-399.3,0-703.1,279.3-732.5,668.8c-14.7,225.4,39.2,379.7,193.5,551.3C1624-1402.4,1957.2-1341.2,2251.2-1488.2z M7018.8-1551.9c-46.6-78.4-102.9-200.9-122.5-269.5l-36.7-129.8H4953.5H3049.8l-41.6,129.8c-22.1,71.1-78.4,191.1-125,269.5l-85.8,139.7H4951h2153.5L7018.8-1551.9z M8295.3-1478.4c124.9-66.2,271.9-210.7,338.1-338.1c44.1-78.4,53.9-139.6,53.9-318.5c0-200.9-7.3-232.7-75.9-355.2c-289.1-514.5-1031.4-497.3-1293.6,31.8c-51.4,98-63.7,161.7-63.7,298.9c0,98,12.3,213.2,29.4,259.7c68.6,203.3,237.7,374.9,453.3,453.3C7869-1397.5,8170.3-1414.7,8295.3-1478.4z M9503.1-1674.4l-7.4-264.6h-205.8h-203.3l-44.1,142.1c-24.5,75.9-61.3,169.1-83.3,200.9c-22,34.3-56.3,88.2-78.4,122.5l-39.2,61.3h333.2h335.6L9503.1-1674.4z"/></g></g>
</svg>