<?xml version="1.0" encoding="utf-8"?>
<!-- Svg Vector Icons : http://www.onlinewebfonts.com/icon -->
<!DOCTYPE svg PUBLIC "-//W3C//DTD SVG 1.1//EN" "http://www.w3.org/Graphics/SVG/1.1/DTD/svg11.dtd">
<svg version="1.1" xmlns="http://www.w3.org/2000/svg" xmlns:xlink="http://www.w3.org/1999/xlink" x="0px" y="0px" viewBox="0 0 1000 1000" enable-background="new 0 0 1000 1000" xml:space="preserve">
<metadata> Svg Vector Icons : http://www.onlinewebfonts.com/icon </metadata>
<g><g transform="translate(0.000000,511.000000) scale(0.100000,-0.100000)"><path d="M4082.5,4996.9c-25.8-10.8-56-32.3-64.6-47.4c-10.8-15.1-23.7-284.3-30.2-596.6l-10.8-566.5l-226.2-79.7c-124.9-45.2-318.8-124.9-430.8-176.6l-206.8-99.1l-407.1,394.2c-344.6,331.7-420,394.1-473.8,396.3c-56,0-146.5-81.8-706.5-641.8c-555.7-555.7-639.7-648.3-639.7-704.3c0-53.8,64.6-129.2,394.2-473.8l396.3-407.1l-96.9-206.8c-53.8-112-133.5-305.8-178.8-430.8l-79.7-226.2l-572.9-10.8c-510.5-8.6-575.1-15.1-609.5-49.5c-36.6-34.5-38.8-103.4-38.8-952c0-848.6,2.2-917.5,38.8-952c34.5-34.5,99.1-40.9,609.5-49.5l572.9-10.8l68.9-204.6c77.5-221.8,161.5-426.5,239.1-583.7l51.7-99.1l-398.5-396.3c-346.8-344.6-396.3-404.9-396.3-463.1c0-60.3,75.4-144.3,637.5-717.2c564.3-572.9,646.2-648.3,704.3-648.3c58.2,0,122.8,56,476,407.1l411.4,407.1l275.7-135.7c150.8-75.4,346.8-159.4,435.1-185.2l161.5-51.7v-562.1c0-523.4,2.2-568.6,40.9-613.8l40.9-51.7h919.7h919.7l40.9,51.7c38.8,45.2,40.9,90.4,40.9,613.8v562.1l196,62.5c107.7,34.5,308,118.5,445.9,187.4l252,124.9l394.2-409.2c351.1-359.7,402.8-407.1,463.1-407.1c62.5,0,140,71.1,721.5,652.6c579.4,579.4,650.5,659.1,650.5,719.4c0,60.3-47.4,114.2-407.1,460.9l-407.1,392l124.9,256.3c68.9,142.1,152.9,344.6,187.4,450.1l60.3,191.7h562.1c523.4,0,568.6,2.1,613.8,40.9l51.7,40.9v917.5c0,850.8-2.1,919.7-38.8,954.2c-34.5,34.5-99.1,40.9-609.5,49.5l-570.8,10.8l-86.2,226.2c-45.2,124.9-131.4,318.8-189.6,432.9l-105.5,206.8l407.1,407.1c357.6,355.4,407.1,415.7,407.1,473.8c0,62.5-68.9,137.8-648.3,706.5c-572.9,562.2-656.9,637.5-717.2,637.5c-58.1,0-116.3-49.5-463.1-396.3L6891.1,3431l-236.9,107.7c-131.4,58.2-331.7,140-445.8,178.8l-206.8,68.9l-10.8,572.9c-8.6,510.5-15.1,575.1-49.5,609.5c-34.5,36.6-105.5,38.8-926.2,43.1C4526.2,5014.1,4106.2,5007.6,4082.5,4996.9z M5689.2,4161.2c0-394.2,6.5-544.9,28-570.8c12.9-19.4,122.8-64.6,241.2-99.1c236.9-71.1,463.1-161.5,736.6-301.5c99.1-47.4,204.6-88.3,236.9-88.3c49.5,0,131.4,71.1,437.2,376.9l379.1,376.9l501.9-486.8l501.8-488.9l-389.9-389.8c-325.2-325.2-389.8-400.6-389.8-452.3c0-34.5,47.4-144.3,105.5-247.7c118.5-206.8,230.4-469.5,305.8-712.9c84-273.5,45.2-258.5,669.9-258.5h534.2v-700v-700h-534.2c-394.2,0-544.9-6.5-570.8-28c-19.4-12.9-60.3-107.7-88.3-208.9c-71.1-241.2-161.5-456.6-303.7-725.9c-66.8-122.8-118.5-247.7-118.5-284.3c0-53.8,58.2-118.5,387.7-437.2l389.8-372.6l-504-501.8L7744-3642.2l-372.6,389.8c-432.9,452.3-409.2,441.5-674.2,288.6c-224-127.1-471.7-232.6-738.8-312.3c-118.5-34.5-228.3-79.7-241.2-99.1c-21.5-25.8-28-176.6-28-570.8V-4480h-700h-700v534.2c0,506.2-2.2,538.5-43.1,575.1c-23.7,21.5-150.8,75.4-284.3,118.5c-301.5,99.1-409.2,146.5-644,282.1c-103.4,58.2-213.2,105.5-247.7,105.5c-51.7,0-127.1-64.6-452.3-389.8L2228-3644.4l-486.8,501.8l-488.9,501.8l376.9,379.1c301.5,303.7,376.9,392,376.9,437.2c0,32.3-49.5,155.1-107.7,273.5c-135.7,269.2-217.5,478.2-288.6,723.7c-32.3,105.5-73.2,204.6-92.6,219.7c-25.8,19.4-176.6,25.8-570.8,25.8H412.3v700v700h534.1c527.7,0,536.3,0,579.4,49.5c23.7,25.8,56,96.9,71.1,155.1c47.4,180.9,161.5,463.1,288.6,717.2c66.8,131.4,120.6,267.1,120.6,299.4c-2.2,47.4-79.7,140-376.9,448l-374.8,387.7l486.8,488.9l488.9,488.9l359.7-344.6c196-187.4,370.5-357.5,385.5-374.8c47.4-58.2,146.5-34.5,392,88.3c254.2,127.1,536.3,241.2,717.2,288.6c60.3,15.1,129.2,47.4,157.2,71.1c47.4,43.1,47.4,51.7,47.4,579.4v534.2h700h700V4161.2z"/><path d="M4739.4,2627.6c-387.7-36.6-880.9-217.5-1199.7-443.7C2938.8,1753.2,2555.4,1089.8,2480,346.7c-77.5-747.4,228.3-1544.3,788.3-2067.7c1087.7-1016.6,2828-868,3726.1,318.8c650.5,857.2,680.6,2041.9,75.4,2940c-413.5,613.8-1094.2,1012.3-1852.3,1089.8c-122.8,10.8-239.1,19.4-258.5,19.4C4939.7,2644.9,4840.6,2636.2,4739.4,2627.6z M5441.5,2285.2c840-172.3,1488.3-805.5,1703.7-1660.6c62.5-247.7,56-805.5-10.8-1055.4c-211.1-790.5-814.2-1391.4-1602.5-1596c-217.5-58.1-646.2-77.5-876.6-43.1c-784,120.6-1430.2,635.4-1725.2,1372c-198.1,497.5-200.3,1122.2,0,1634.8c215.4,555.7,700,1036,1262.2,1251.4C4558.5,2326.1,5053.8,2364.9,5441.5,2285.2z"/></g></g>
</svg>