<?xml version="1.0" encoding="UTF-8" standalone="no"?>
<!-- Svg Vector Icons : http://www.onlinewebfonts.com/icon -->

<svg
   xmlns:dc="http://purl.org/dc/elements/1.1/"
   xmlns:cc="http://creativecommons.org/ns#"
   xmlns:rdf="http://www.w3.org/1999/02/22-rdf-syntax-ns#"
   xmlns:svg="http://www.w3.org/2000/svg"
   xmlns="http://www.w3.org/2000/svg"
   xmlns:sodipodi="http://sodipodi.sourceforge.net/DTD/sodipodi-0.dtd"
   xmlns:inkscape="http://www.inkscape.org/namespaces/inkscape"
   version="1.1"
   x="0px"
   y="0px"
   viewBox="0 0 1000 1000"
   enable-background="new 0 0 1000 1000"
   xml:space="preserve"
   id="svg3422"
   inkscape:version="0.91 r13725"
   sodipodi:docname="1.svg"><defs
     id="defs3432" /><sodipodi:namedview
     pagecolor="#ffffff"
     bordercolor="#666666"
     borderopacity="1"
     objecttolerance="10"
     gridtolerance="10"
     guidetolerance="10"
     inkscape:pageopacity="0"
     inkscape:pageshadow="2"
     inkscape:window-width="1400"
     inkscape:window-height="1026"
     id="namedview3430"
     showgrid="false"
     inkscape:zoom="0.4445"
     inkscape:cx="117.03732"
     inkscape:cy="355.56903"
     inkscape:window-x="1920"
     inkscape:window-y="24"
     inkscape:window-maximized="1"
     inkscape:current-layer="g3426" /><metadata
     id="metadata3424"> Svg Vector Icons : http://www.onlinewebfonts.com/icon <rdf:RDF><cc:Work
     rdf:about=""><dc:format>image/svg+xml</dc:format><dc:type
       rdf:resource="http://purl.org/dc/dcmitype/StillImage" /><dc:title></dc:title></cc:Work></rdf:RDF></metadata><g
     id="g3426"><path
       d="m 923.8172,884.1172 c 0,58.3 -53.4,105.8 -119.1,105.8 l -603.1,0 c -69.3,0 -125.600001,-47.5 -125.600001,-105.8 l 0,-497.8 c 0,-58.4 56.400001,-105.8 125.600001,-105.8 l 64.5,0 c 17.2,0 31.3,14 31.3,31.2 0,17.2 -14,31.2 -31.3,31.2 l -64.5,0 c -29.4,0 -53.4,19.5 -53.4,43.5 l 0,497.7 c 0,24 23.9,43.5 53.4,43.5 l 596.6,0 c 29.4,0 53.4,-19.5 53.4,-43.5 l 0,-497.8 c 0,-24 -23.9,-43.5 -53.4,-43.5 l -64.5,0 c -17.2,0 -31.2,-14 -31.2,-31.2 0,-17.2 14,-31.2 31.2,-31.2 l 64.5,0 c 69.3,0 125.6,47.5 125.6,105.8 l 0,497.9 0,0 z m -198.4,-671.5 c 0,8.4 -3.5,16.3 -9.8,22.2 -12.8,11.9 -33.6,11.9 -46.4,0 l -128.7,-120 c -0.1,-0.1 -0.2,-0.2 -0.4,-0.1 -0.2,0.1 -0.2,0.2 -0.2,0.4 l 0,522 c 0,17.2 -14.8,31.2 -33,31.2 -18.2,0 -33,-14 -33,-31.2 l 0,-521.9 c 0,-0.1 0,-0.3 -0.2,-0.4 -0.2,-0.1 -0.3,0 -0.4,0.1 l -128.7,120 c -12.8,11.9 -33.6,11.9 -46.4,0 -6.3,-5.9 -9.8,-13.8 -9.8,-22.2 0,-8.4 3.5,-16.3 9.8,-22.2 l 184.2,-171.700001 c 6.5,-6 15.2,-9.0999998 24.5,-8.7 9.3,-0.3999998 18,2.7 24.5,8.7 l 184.2,171.600001 c 6.3,5.9 9.8,13.8 9.8,22.2 l 0,0 z"
       id="path3428"
       inkscape:connector-curvature="0" /></g></svg>