<?xml version="1.0" encoding="utf-8"?>
<!-- Svg Vector Icons : http://www.onlinewebfonts.com/icon -->
<!DOCTYPE svg PUBLIC "-//W3C//DTD SVG 1.1//EN" "http://www.w3.org/Graphics/SVG/1.1/DTD/svg11.dtd">
<svg version="1.1" xmlns="http://www.w3.org/2000/svg" xmlns:xlink="http://www.w3.org/1999/xlink" x="0px" y="0px" viewBox="0 0 1000 1000" enable-background="new 0 0 1000 1000" xml:space="preserve">
<metadata> Svg Vector Icons : http://www.onlinewebfonts.com/icon </metadata>
<g><g transform="translate(0.000000,512.000000) scale(0.100000,-0.100000)"><path d="M8913.2,4988.4c-107.3-36.4-201.1-99.6-327.6-220.3c-105.4-101.5-4919.5-6528.6-4990.3-6662.7c-69-132.2-97.7-304.6-74.7-434.8l17.3-99.6l-145.6,11.5c-82.4,7.7-216.5,3.8-308.4-9.6c-367.8-49.8-582.4-174.3-908-526.8c-360.1-388.9-482.8-501.9-620.7-569c-120.7-59.4-139.9-63.2-329.5-61.3c-170.5,0-222.2,9.6-337.2,51.7c-168.6,63.2-206.9,65.1-266.3,3.8c-80.5-78.5-63.2-153.2,91.9-381.2c308.4-457.8,923.4-777.7,1634.1-856.3c245.2-26.8,582.4-13.4,745.2,30.6c498.1,128.4,894.6,557.5,1090,1176.2c42.1,134.1,84.3,318,116.9,521.1c9.6,67.1,15.3,70.9,95.8,78.6c116.9,13.4,279.7,97.7,377.4,193.5c78.5,78.6,4394.6,6704.9,4530.6,6957.7C9577.9,4703,9361.4,5143.6,8913.2,4988.4z M9108.6,4603.4c-1.9-72.8-17.2-139.8-51.7-212.6c-26.8-59.4-496.1-796.9-1042.1-1637.9C7468.7,1909.9,6480.2,387,5817.4-636c-662.8-1021.1-1222.2-1879.3-1245.2-1902.3c-153.3-166.7-438.7-168.6-613-5.7c-128.4,118.8-178.2,352.5-103.5,494.2c44.1,84.3,4823.7,6469.2,4919.5,6572.7c95.8,103.5,243.3,199.2,295,191.6C9102.8,4708.7,9108.6,4695.3,9108.6,4603.4z M3547.3-2743.3c157.1-23,203.1-38.3,283.5-93.9c53.6-36.4,114.9-72.8,136-78.5c42.2-13.4,42.2-13.4-15.3-304.6c-107.3-561.3-373.6-971.2-745.2-1145.6c-191.6-90-362.1-116.9-659-103.4c-377.4,15.3-706.9,95.8-996.2,241.4c-139.8,69-331.4,201.2-398.5,273.9l-44.1,46l178.2,9.6c375.5,21.1,609.2,172.4,1047.9,674.3C2719.8-2781.6,3016.7-2662.8,3547.3-2743.3z"/></g></g>
</svg>