<?xml version="1.0" encoding="utf-8"?>
<!-- Svg Vector Icons : http://www.onlinewebfonts.com/icon -->
<!DOCTYPE svg PUBLIC "-//W3C//DTD SVG 1.1//EN" "http://www.w3.org/Graphics/SVG/1.1/DTD/svg11.dtd">
<svg version="1.1" xmlns="http://www.w3.org/2000/svg" xmlns:xlink="http://www.w3.org/1999/xlink" x="0px" y="0px" viewBox="0 0 1000 1000" enable-background="new 0 0 1000 1000" xml:space="preserve">
<metadata> Svg Vector Icons : http://www.onlinewebfonts.com/icon </metadata>
<g><g transform="translate(0.000000,512.000000) scale(0.100000,-0.100000)"><path d="M7755,4994.8c-455.8-86.2-880.9-367.7-1145.2-756.4c-310.2-455.8-400.2-1043.7-237.5-1551.2l46-143.6l-712.4-710.5l-710.5-712.4l-78.5,9.6c-74.7,9.6-122.6,53.6-833,764.1L3327.5,2647l88.1,93.8c51.7,55.5,99.6,128.3,113,176.2c21.1,70.9,21.1,91.9-9.6,170.4c-19.2,47.9-36.4,111.1-36.4,139.8c0,174.3,469.2,674.1,909.6,969c180,122.6,476.8,271.9,651.1,327.5c214.5,70.9,289.2,210.6,172.3,327.5c-68.9,67-147.5,90-419.4,118.7c-683.6,70.8-1442-164.7-2054.8-641.5c-136-105.3-1522.4-1474.6-1555-1535.9c-42.1-76.6-51.7-168.5-24.9-247l28.7-78.5l-124.5-122.6c-114.9-116.8-124.5-122.6-172.3-101.5c-143.6,65.1-258.5,11.5-515.1-241.3c-271.9-268.1-319.8-369.6-249-536.2c30.6-76.6,718.1-781.3,827.3-850.3c76.6-47.9,222.2-51.7,302.6-9.6c30.6,15.3,155.1,132.1,277.7,256.6c260.4,262.4,294.9,333.2,243.2,476.8l-28.7,82.3l118.7,116.8l116.8,116.8l88.1-23c124.5-34.5,224.1,0,348.5,116.8l99.6,93.8l748.8-750.7l748.8-750.7l11.5-95.7l11.5-95.8l-723.9-723.9L2594-1299.9l-151.3,47.9c-593.7,187.7-1231.4,51.7-1727.4-367.7c-245.1-204.9-478.8-580.2-559.2-892.4c-80.4-304.5-67-697.1,30.6-999.6c55.5-172.3,195.3-264.3,346.6-227.9c34.5,9.6,214.5,174.3,519,476.8l463.4,463.4l281.5-283.4l283.4-281.5l-463.4-463.4c-302.6-304.5-467.3-484.5-476.8-519c-36.4-151.3,55.5-291.1,227.9-346.6c421.3-136,903.9-107.2,1302.2,80.4C3494-4226,3900-3280,3618.5-2408.7l-38.3,122.6l697.1,697.1l699,699L6742-2755.3c1233.3-1300.3,1794.4-1878.6,1857.6-1915c122.6-72.8,235.5-86.2,377.2-44c107.3,30.6,130.2,47.9,488.3,407.9c337.1,339,379.2,386.8,409.8,480.7c42.1,128.3,30.6,258.5-30.6,375.3c-34.5,65.1-524.7,540-1903.5,1848C6920-633.5,6081.3,170.8,6077.4,184.2c-1.9,11.5,296.8,323.6,664.5,691.3l668.3,666.4l120.6-38.3c471.1-151.3,961.3-113,1396.1,113c436.6,226,800.5,676,919.2,1137.5c107.2,409.8,40.2,1001.6-130.2,1166.2c-59.4,55.5-162.8,80.4-247,61.3c-34.5-9.6-214.5-174.3-519-476.8l-463.4-463.4L8205,3324.9l-283.4,281.5l463.4,463.4c302.6,304.5,467.3,484.5,476.8,519c30.7,126.4-44,275.8-164.7,323.6C8463.6,5008.2,8025,5046.5,7755,4994.8z M8427.2,4678.8l101.5-23l-421.3-425.1c-429-430.9-482.6-499.8-482.6-628.1c1.9-120.6,67-210.7,375.3-515.1c333.2-327.5,381.1-356.2,540-333.2c86.2,11.5,107.3,30.6,534.3,455.8c245.1,243.2,450,438.5,453.9,432.8c5.7-5.7,24.9-91.9,42.1-189.6c111.1-639.6-206.8-1262-798.6-1570.3c-218.3-113-402.2-157-668.3-158.9c-235.5,0-384.9,28.7-595.6,113c-61.3,24.9-126.4,46-145.6,46s-365.8-331.3-771.7-737.3c-406-406-746.9-737.3-756.4-737.3c-11.5,1.9-143.6,122.6-296.8,268.1l-277.7,266.2l741.1,743c406,407.9,744.9,762.2,750.7,785.2c7.6,24.9-5.8,86.2-34.5,155.1c-122.6,306.4-151.3,672.2-72.8,967.1c149.4,557.3,630,1003.5,1187.3,1105C7946.5,4719,8293.1,4707.5,8427.2,4678.8z M4560.7,4657.7c-15.3-9.6-103.4-61.3-193.4-114.9C3900,4267.1,3407.9,3796,3237.4,3458.9c-55.5-107.2-65.1-149.4-65.1-256.6c0-99.6,7.7-137.9,36.4-168.5l38.3-42.1l-532.4-532.4L2180.3,1925l-63.2,26.8c-137.9,57.5-241.3,21.1-423.2-151.3c-185.7-176.2-254.7-281.5-254.7-388.8c0-46,9.6-105.3,23-132.1c21.1-47.9,13.4-57.5-147.5-220.2c-93.8-95.7-180-172.3-191.5-172.3c-9.6,0-176.2,157-367.7,348.5L405.1,1586L589,1769.9l183.8,183.8l78.5-28.7c141.7-49.8,222.2-11.5,436.6,204.9c158.9,157,187.7,197.3,203,270c17.2,78.5,11.5,132.1-21.1,210.7c-9.6,21.1,199.2,239.4,710.5,748.8c593.7,589.8,756.4,741.1,905.8,838.8C3427,4426,3766,4567.7,4101.1,4629C4371.1,4676.9,4614.3,4692.2,4560.7,4657.7z M3909.6,1624.4l794.7-794.7h111.1c109.2,0,111.1-1.9,239.4-118.7c566.8-526.6,4521.4-4291.6,4531-4316.4c36.4-95.8,17.2-124.5-319.8-463.4c-180-181.9-350.4-340.9-375.4-350.4c-26.8-11.5-70.8-13.4-97.7-7.7c-36.4,7.7-676,670.3-2232.9,2311.4C5361.2-851.8,4367.3,205.3,4353.9,230.2c-15.3,26.8-21.1,74.7-17.2,109.2c5.8,32.6,5.8,74.7-1.9,91.9c-7.7,17.2-369.6,390.7-806.2,829.2l-792.8,798.6l180,180c97.7,99.6,183.8,180,189.6,180C3111,2419.1,3473,2061,3909.6,1624.4z M4501.4-390.3l268.1-283.4l-752.6-756.4c-415.6-415.6-760.3-775.6-766-796.7c-7.7-24.9,9.6-95.8,44-181.9c80.4-206.8,105.3-346.6,103.4-582.1c-1.9-243.2-46-434.7-141.7-624.3c-204.9-406-517.1-674.1-936.5-804.3c-114.9-36.4-187.7-44.1-373.4-46c-128.3,0-283.4,11.5-350.4,26.8l-120.6,26.8l430.9,434.7c614.7,622.4,614.7,620.5,95.7,1131.8c-333.2,327.5-381.1,356.2-540,333.2c-86.2-11.5-107.2-30.6-534.3-455.8c-245.1-243.2-448.1-438.5-451.9-432.8c-23,24.9-55.5,220.2-65.1,371.5C370.6-2345.5,845.6-1705.9,1533.1-1522c291.1,78.5,658.8,49.8,963.3-74.7c65.1-24.9,134-42.1,157-36.4c23,5.8,381.1,350.5,796.6,767.9c415.6,415.6,762.2,756.4,769.8,756.4C4225.6-108.7,4353.9-235.1,4501.4-390.3z"/></g></g>
</svg>