<?xml version="1.0" standalone="no"?>
<!DOCTYPE svg PUBLIC "-//W3C//DTD SVG 20010904//EN"
 "http://www.w3.org/TR/2001/REC-SVG-20010904/DTD/svg10.dtd">
<svg version="1.0" xmlns="http://www.w3.org/2000/svg"
 width="196.000000pt" height="196.000000pt" viewBox="0 0 196.000000 196.000000"
 preserveAspectRatio="xMidYMid meet">
<metadata>
Created by potrace 1.11, written by Peter Selinger 2001-2013
</metadata>
<g transform="translate(0.000000,196.000000) scale(0.100000,-0.100000)"
fill="#000000" stroke="none">
<path d="M1366 1348 c1 -29 3 -56 3 -59 1 -3 13 -5 28 -5 23 1 35 -12 89 -99
35 -55 68 -109 74 -121 10 -17 -2 -42 -86 -180 -53 -87 -104 -169 -112 -182
l-15 -23 78 3 78 3 68 120 c38 66 72 126 76 132 5 9 35 -34 84 -120 l77 -132
76 -3 76 -3 -110 181 c-60 100 -110 184 -110 187 0 12 133 218 148 231 9 6 25
12 37 12 19 0 21 5 21 55 l-1 55 -60 0 c-37 0 -69 -6 -82 -15 -20 -14 -93
-131 -132 -210 l-17 -36 -27 53 c-52 102 -95 173 -117 190 -16 13 -40 18 -84
18 l-62 0 2 -52z"/>
<path d="M22 1078 l3 -21 635 1 c349 0 643 1 653 1 10 1 17 9 17 21 0 20 -7
20 -656 20 l-655 0 3 -22z"/>
<path d="M74 980 c-47 -19 -69 -85 -41 -122 7 -9 35 -29 61 -45 60 -35 75 -55
57 -77 -18 -21 -53 -20 -82 3 -24 18 -24 18 -41 -4 -16 -22 -16 -23 24 -45 30
-17 50 -21 80 -17 37 5 76 35 79 61 1 6 2 18 3 26 3 32 -25 67 -76 95 -58 31
-69 42 -61 61 11 28 83 28 83 1 0 -7 11 -14 25 -15 20 -1 25 3 25 21 0 30 -11
44 -43 56 -33 13 -64 13 -93 1z"/>
<path d="M595 976 c-70 -31 -105 -110 -84 -189 44 -168 277 -146 296 27 14
119 -105 210 -212 162z m100 -51 c52 -26 71 -95 41 -154 -33 -63 -129 -62
-160 3 -9 19 -16 46 -16 61 0 37 29 83 60 94 35 13 38 13 75 -4z"/>
<path d="M240 960 c0 -11 7 -23 15 -26 12 -5 15 -29 15 -130 l0 -124 25 0 c26
0 28 3 27 63 -1 32 2 37 21 38 60 2 77 6 96 23 52 47 44 138 -16 165 -13 6
-60 11 -103 11 -74 0 -80 -2 -80 -20z m168 -42 c17 -17 15 -54 -4 -72 -8 -9
-30 -16 -49 -16 l-33 0 1 50 0 50 37 0 c20 0 41 -5 48 -12z"/>
<path d="M830 960 c0 -11 7 -23 15 -26 12 -5 15 -29 15 -130 l0 -124 25 0 c22
0 25 4 26 38 1 20 1 41 0 46 -3 16 20 34 37 29 10 -2 29 -25 42 -51 28 -54 36
-62 68 -62 17 0 22 6 22 25 0 14 -6 25 -12 25 -16 0 -51 82 -40 89 16 11 32
49 32 76 0 16 -12 38 -29 56 -28 28 -34 29 -115 29 -80 0 -86 -1 -86 -20z
m169 -52 c16 -43 -5 -68 -56 -68 -31 0 -31 1 -31 45 l0 45 39 0 c32 0 41 -4
48 -22z"/>
<path d="M1094 966 c-10 -26 0 -59 19 -62 10 -1 21 4 24 12 3 8 16 14 29 14
l24 0 0 -126 0 -125 27 3 27 3 -1 123 -1 122 26 0 c13 0 30 -7 36 -16 19 -26
48 -7 44 30 l-3 31 -123 3 c-100 2 -123 0 -128 -12z"/>
<path d="M63 592 c-55 -3 -63 -6 -63 -22 0 -20 15 -20 969 -20 964 0 970 0
968 20 -1 13 -9 20 -22 20 -110 3 -1805 4 -1852 2z"/>
</g>
</svg>
