<svg version="1.0" xmlns="http://www.w3.org/2000/svg" width="261.333" height="261.333" viewBox="0 0 196 196"><path d="M136.6 61.2c.1 2.9.3 5.6.3 5.9.1.3 1.3.5 2.8.5 2.3-.1 3.5 1.2 8.9 9.9 3.5 5.5 6.8 10.9 7.4 12.1 1 1.7-.2 4.2-8.6 18-5.3 8.7-10.4 16.9-11.2 18.2l-1.5 2.3 7.8-.3 7.8-.3 6.8-12c3.8-6.6 7.2-12.6 7.6-13.2.5-.9 3.5 3.4 8.4 12l7.7 13.2 7.6.3 7.6.3-11-18.1c-6-10-11-18.4-11-18.7 0-1.2 13.3-21.8 14.8-23.1.9-.6 2.5-1.2 3.7-1.2 1.9 0 2.1-.5 2.1-5.5l-.1-5.5h-6c-3.7 0-6.9.6-8.2 1.5-2 1.4-9.3 13.1-13.2 21l-1.7 3.6-2.7-5.3c-5.2-10.2-9.5-17.3-11.7-19-1.6-1.3-4-1.8-8.4-1.8h-6.2l.2 5.2zM2.2 88.2l.3 2.1 63.5-.1c34.9 0 64.3-.1 65.3-.1 1-.1 1.7-.9 1.7-2.1 0-2-.7-2-65.6-2H1.9l.3 2.2zM7.4 98c-4.7 1.9-6.9 8.5-4.1 12.2.7.9 3.5 2.9 6.1 4.5 6 3.5 7.5 5.5 5.7 7.7-1.8 2.1-5.3 2-8.2-.3-2.4-1.8-2.4-1.8-4.1.4-1.6 2.2-1.6 2.3 2.4 4.5 3 1.7 5 2.1 8 1.7 3.7-.5 7.6-3.5 7.9-6.1.1-.6.2-1.8.3-2.6.3-3.2-2.5-6.7-7.6-9.5-5.8-3.1-6.9-4.2-6.1-6.1 1.1-2.8 8.3-2.8 8.3-.1 0 .7 1.1 1.4 2.5 1.5 2 .1 2.5-.3 2.5-2.1 0-3-1.1-4.4-4.3-5.6-3.3-1.3-6.4-1.3-9.3-.1zm52.1.4c-7 3.1-10.5 11-8.4 18.9 4.4 16.8 27.7 14.6 29.6-2.7 1.4-11.9-10.5-21-21.2-16.2zm10 5.1c5.2 2.6 7.1 9.5 4.1 15.4-3.3 6.3-12.9 6.2-16-.3-.9-1.9-1.6-4.6-1.6-6.1 0-3.7 2.9-8.3 6-9.4 3.5-1.3 3.8-1.3 7.5.4zM24 100c0 1.1.7 2.3 1.5 2.6 1.2.5 1.5 2.9 1.5 13V128h2.5c2.6 0 2.8-.3 2.7-6.3-.1-3.2.2-3.7 2.1-3.8 6-.2 7.7-.6 9.6-2.3 5.2-4.7 4.4-13.8-1.6-16.5-1.3-.6-6-1.1-10.3-1.1-7.4 0-8 .2-8 2zm16.8 4.2c1.7 1.7 1.5 5.4-.4 7.2-.8.9-3 1.6-4.9 1.6h-3.3l.1-5v-5H36c2 0 4.1.5 4.8 1.2zM83 100c0 1.1.7 2.3 1.5 2.6 1.2.5 1.5 2.9 1.5 13V128h2.5c2.2 0 2.5-.4 2.6-3.8.1-2 .1-4.1 0-4.6-.3-1.6 2-3.4 3.7-2.9 1 .2 2.9 2.5 4.2 5.1 2.8 5.4 3.6 6.2 6.8 6.2 1.7 0 2.2-.6 2.2-2.5 0-1.4-.6-2.5-1.2-2.5-1.6 0-5.1-8.2-4-8.9 1.6-1.1 3.2-4.9 3.2-7.6 0-1.6-1.2-3.8-2.9-5.6-2.8-2.8-3.4-2.9-11.5-2.9-8 0-8.6.1-8.6 2zm16.9 5.2c1.6 4.3-.5 6.8-5.6 6.8-3.1 0-3.1-.1-3.1-4.5V103h3.9c3.2 0 4.1.4 4.8 2.2zm9.5-5.8c-1 2.6 0 5.9 1.9 6.2 1 .1 2.1-.4 2.4-1.2.3-.8 1.6-1.4 2.9-1.4h2.4v25.1l2.7-.3 2.7-.3-.1-12.3-.1-12.2h2.6c1.3 0 3 .7 3.6 1.6 1.9 2.6 4.8.7 4.4-3l-.3-3.1-12.3-.3c-10-.2-12.3 0-12.8 1.2zM6.3 136.8c-5.5.3-6.3.6-6.3 2.2 0 2 1.5 2 96.9 2 96.4 0 97 0 96.8-2-.1-1.3-.9-2-2.2-2-11-.3-180.5-.4-185.2-.2z"/></svg>